Coordinates
version=1
nRows=11
nColumns=63
inDegrees=yes

Units are S.I. units (second, meters, Newtons, ...)
If the header above contains a line with 'inDegrees', this indicates whether rotational values are in degrees (yes) or radians (no).

endheader
time	pelvis_tilt	pelvis_list	pelvis_rotation	pelvis_tx	pelvis_ty	pelvis_tz	hip_flexion_r	hip_adduction_r	hip_rotation_r	knee_angle_r	knee_angle_r_beta	ankle_angle_r	subtalar_angle_r	mtp_angle_r	hip_flexion_l	hip_adduction_l	hip_rotation_l	knee_angle_l	knee_angle_l_beta	ankle_angle_l	subtalar_angle_l	mtp_angle_l	L5_S1_Flex_Ext	L5_S1_Lat_Bending	L5_S1_axial_rotation	L4_L5_Flex_Ext	L4_L5_Lat_Bending	L4_L5_axial_rotation	L3_L4_Flex_Ext	L3_L4_Lat_Bending	L3_L4_axial_rotation	L2_L3_Flex_Ext	L2_L3_Lat_Bending	L2_L3_axial_rotation	L1_L2_Flex_Ext	L1_L2_Lat_Bending	L1_L2_axial_rotation	L1_T12_Flex_Ext	L1_T12_Lat_Bending	L1_T12_axial_rotation	Abs_r3	Abs_r2	Abs_r1	Abs_t1	Abs_t2	neck_flexion	neck_bending	neck_rotation	arm_flex_r	arm_add_r	arm_rot_r	elbow_flex_r	pro_sup_r	wrist_flex_r	wrist_dev_r	arm_flex_l	arm_add_l	arm_rot_l	elbow_flex_l	pro_sup_l	wrist_flex_l	wrist_dev_l
      3.25000000	    -27.56548977	      2.62028284	    -87.03503039	      1.74836672	      0.95150469	      0.07240100	     16.56099385	     -2.43244954	     13.33788366	     22.03078633	      0.38450976	     -7.22785449	     18.62030168	      0.00000000	     21.04228013	      3.31362957	    -19.00192818	     30.27312744	      0.52836575	     -7.00847382	     -9.75489271	      0.00000000	      0.08238495	     -1.08142255	      0.26936568	      0.15299710	     -1.43829199	      0.28620104	      0.13535024	     -2.62937078	      0.28620104	      0.09415776	     -2.62937078	      0.23569497	      0.07650267	     -2.20523686	      0.21885962	      0.04707476	     -1.67512352	      0.20202426	      0.58846748	    -12.23326813	      1.49813112	      0.00000000	      0.00000000	      0.00000000	      0.00000000	     -0.00000000	    166.88039928	     -2.54245297	     66.05366008	     26.76241230	     67.04510990	      0.00000000	      5.00000014	    -29.78188539	   -145.96440553	    222.72085081	     37.02748511	     66.12407632	      0.00000000	      5.00000014
      3.26666670	    -27.14130026	      2.61896454	    -86.87252821	      1.75334506	      0.96271053	      0.07391252	     15.90408818	     -3.02081254	     12.53017958	     20.82306846	      0.36343111	     -8.54797101	     19.19901323	      0.00000000	     20.67469846	      3.82678324	    -18.62733338	     29.59279515	      0.51649171	     -8.05736667	     -9.65853075	      0.00000000	      0.03447146	     -1.20667515	      0.20625456	      0.06401694	     -1.60487795	      0.21914547	      0.05663316	     -2.93390995	      0.21914547	      0.03939743	     -2.93390995	      0.18047274	      0.03201020	     -2.46065196	      0.16758183	      0.01969699	     -1.86913980	      0.15469092	      0.24622618	    -13.65015061	      1.14712596	      0.00000000	      0.00000000	      0.00000000	      0.00000000	     -0.00000000	    168.55428536	     -3.46047172	     70.04956241	     25.65982094	     63.67839239	      0.00000000	      5.00000014	    -26.87715110	   -147.00790768	    228.68632046	     34.53937823	     64.15378658	      0.00000000	      5.00000014
      3.28333330	    -26.86883300	      2.58829096	    -86.68554232	      1.75624268	      0.97027120	      0.07490130	     15.45538431	     -3.38422370	     11.81379948	     20.09954468	      0.35080323	     -9.51015755	     19.41693683	      0.00000000	     20.48157559	      4.12060233	    -18.29331464	     29.29364510	      0.51127056	     -8.78491547	     -9.82271007	      0.00000000	      0.00562936	     -1.28590445	      0.19238174	      0.01045429	     -1.71025292	      0.20440559	      0.00924848	     -3.12654809	      0.20440559	      0.00643380	     -3.12654809	      0.16833402	      0.00522742	     -2.62221636	      0.15631016	      0.00321662	     -1.99186600	      0.14428630	      0.04020996	    -14.54640834	      1.06996950	      0.00000000	      0.00000000	      0.00000000	      0.00000000	     -0.00000000	    169.41345717	     -3.94512525	     72.00494311	     24.90327723	     63.98815106	      0.00000000	      5.00000014	    -26.26081679	   -147.39705784	    229.56643368	     34.02704635	     63.79034224	      0.00000000	      5.00000014
      3.30000000	    -26.67645150	      2.53159400	    -86.53875312	      1.75674599	      0.97413994	      0.07546153	     15.19437955	     -3.61815056	     11.14025318	     19.78025895	      0.34523065	    -10.12643531	     19.52241121	      0.00000000	     20.39088557	      4.21680268	    -18.19785590	     29.27120819	      0.51087896	     -9.02579698	     -9.85883644	      0.00000000	     -0.01269462	     -1.34044999	      0.16831703	     -0.02357518	     -1.78279849	      0.17883684	     -0.02085599	     -3.25917011	      0.17883684	     -0.01450868	     -3.25917011	      0.14727740	     -0.01178822	     -2.73344562	      0.13675758	     -0.00725370	     -2.07635704	      0.12623777	     -0.09067639	    -15.16343840	      0.93612881	      0.00000000	      0.00000000	      0.00000000	      0.00000000	     -0.00000000	    169.58746162	     -4.32688044	     72.30046878	     24.91370678	     64.03081798	      0.00000000	      5.00000014	    -26.26339161	   -147.04972864	    229.66278498	     34.41372210	     63.70552280	      0.00000000	      5.00000014
      3.31666670	    -26.63129204	      2.47374806	    -86.33350773	      1.75495616	      0.97400471	      0.07565244	     15.12236930	     -3.70860883	     10.39502271	     19.84911849	      0.34643247	    -10.36163945	     19.57594554	      0.00000000	     20.47082781	      4.12868374	    -18.06791309	     29.56240628	      0.51596132	     -8.99705292	    -10.18289737	      0.00000000	     -0.03122296	     -1.34895671	      0.12051963	     -0.05798416	     -1.79411242	      0.12805210	     -0.05129620	     -3.27985334	      0.12805210	     -0.03568472	     -3.27985334	      0.10545467	     -0.02899364	     -2.75079252	      0.09792220	     -0.01784080	     -2.08953394	      0.09038972	     -0.22302248	    -15.25966808	      0.67029400	      0.00000000	      0.00000000	      0.00000000	      0.00000000	     -0.00000000	    169.95476365	     -4.45429028	     74.93314511	     25.51153028	     64.29408822	      0.00000000	      5.00000014	    -26.72070501	   -145.24026794	    230.08881209	     36.88487417	     62.41977614	      0.00000000	      5.00000014
      3.33333330	    -26.72953434	      2.45066001	    -86.10886698	      1.75067657	      0.96996889	      0.07543096	     15.25847173	     -3.65816523	      9.57984940	     20.21615632	      0.35283849	    -10.30234186	     19.60662414	      0.00000000	     20.73513745	      3.83934642	    -17.96864359	     30.11899791	      0.52567568	     -8.62346597	    -10.53678958	      0.00000000	     -0.02766643	     -1.33567181	      0.06900375	     -0.05137932	     -1.77644351	      0.07331648	     -0.04545317	     -3.24755244	      0.07331648	     -0.03161996	     -3.24755244	      0.06037828	     -0.02569104	     -2.72370196	      0.05606555	     -0.01580860	     -2.06895564	      0.05175281	     -0.19761851	    -15.10938667	      0.38377814	      0.00000000	      0.00000000	      0.00000000	      0.00000000	     -0.00000000	    169.63494992	     -4.73428642	     75.49164468	     27.10215556	     64.36198145	      0.00000000	      5.00000014	    -27.55648334	   -143.38052262	    229.99833732	     38.68972180	     62.00660543	      0.00000000	      5.00000014
      3.35000000	    -26.87407614	      2.31557545	    -85.97256105	      1.74413020	      0.96255335	      0.07492478	     15.43716163	     -3.53821057	      8.89116681	     20.85596559	      0.36400527	    -10.01408584	     19.61757112	      0.00000000	     20.94273949	      3.44270410	    -17.98885977	     30.80326290	      0.53761836	     -7.93116842	    -10.98746520	      0.00000000	     -0.04475871	     -1.29380506	      0.00324279	     -0.08312141	     -1.72076074	      0.00344546	     -0.07353409	     -3.14575763	      0.00344546	     -0.05115473	     -3.14575763	      0.00283744	     -0.04156294	     -2.63832729	      0.00263476	     -0.02557513	     -2.00410404	      0.00243209	     -0.31970701	    -14.63578165	      0.01803540	      0.00000000	      0.00000000	      0.00000000	      0.00000000	     -0.00000000	    169.25435935	     -4.70753939	     76.01632216	     29.02219627	     64.46055099	      0.00000000	      5.00000014	    -28.96801351	   -140.26039732	    229.21470274	     42.77295065	     61.04347866	      0.00000000	      5.00000014
      3.36666670	    -27.21568693	      2.24030305	    -85.81028840	      1.73547125	      0.95172060	      0.07405511	     15.85209678	     -3.23118366	      8.19841195	     21.79218549	      0.38034539	     -9.38105475	     19.61867570	      0.00000000	     21.38353632	      2.81858009	    -17.93872301	     31.76886031	      0.55447121	     -6.93317347	    -11.52943745	      0.00000000	     -0.03116856	     -1.19492331	     -0.06083403	     -0.05788313	     -1.58924801	     -0.06463616	     -0.05120682	     -2.90533655	     -0.06463616	     -0.03562254	     -2.90533655	     -0.05322978	     -0.02894312	     -2.43668762	     -0.04942765	     -0.01780971	     -1.85093621	     -0.04562553	     -0.22263389	    -13.51721151	     -0.33834065	      0.00000000	      0.00000000	      0.00000000	      0.00000000	     -0.00000000	    168.24844259	     -3.89244745	     75.18497057	     30.67990917	     64.65150024	      0.00000000	      5.00000014	    -31.80075010	   -136.38651228	    226.64231049	     47.34396513	     58.00974697	      0.00000000	      5.00000014
      3.38333330	    -27.66647647	      2.15085996	    -85.65807511	      1.72481736	      0.93813183	      0.07280261	     16.45736970	     -2.78105240	      7.67632146	     23.09604709	      0.40310207	     -8.40925722	     19.60852417	      0.00000000	     21.97328333	      2.04215884	    -17.82782328	     33.01609776	      0.57623961	     -5.60981754	    -12.05124981	      0.00000000	     -0.01429929	     -1.07732641	     -0.21417562	     -0.02655522	     -1.43284413	     -0.22756159	     -0.02349231	     -2.61941143	     -0.22756159	     -0.01634266	     -2.61941143	     -0.18740367	     -0.01327832	     -2.19688402	     -0.17401769	     -0.00817062	     -1.66877861	     -0.16063171	     -0.10213842	    -12.18693182	     -1.19118054	      0.00000000	      0.00000000	      0.00000000	      0.00000000	     -0.00000000	    166.73571336	     -3.35467006	     73.40004636	     34.00204708	     65.18163150	      0.00000000	      5.00000014	    -34.43316082	   -131.67884816	    225.05498339	     52.27918675	     55.99391539	      0.00000000	      5.00000014
      3.40000000	    -28.32214382	      2.03135776	    -85.49404400	      1.71272632	      0.92239577	      0.07134761	     17.15609764	     -2.13925185	      7.08125897	     24.62292921	      0.42975119	     -6.93371615	     19.58130340	      0.00000000	     22.68035516	      0.99309702	    -17.77001297	     34.54969138	      0.60300587	     -3.82118767	    -12.54410927	      0.00000000	      0.02060734	     -0.91326699	     -0.51275097	      0.03826989	     -1.21464510	     -0.54479791	      0.03385580	     -2.22051736	     -0.54479791	      0.02355213	     -2.22051736	     -0.44865710	      0.01913597	     -1.86233405	     -0.41661016	      0.01177503	     -1.41465057	     -0.38456323	      0.14719616	    -10.33105884	     -2.85176708	      0.00000000	      0.00000000	      0.00000000	      0.00000000	     -0.00000000	    163.97831404	     -2.26535130	     68.86776522	     38.14632374	     66.36390065	      0.00000000	      5.00000014	    -37.36571811	   -125.63380545	    223.27123915	     57.97517244	     53.58976688	      0.00000000	      5.00000014
      3.41666670	    -29.06839459	      1.89934057	    -85.31895734	      1.69934370	      0.90530822	      0.06954495	     18.06893626	     -1.34428469	      6.67670593	     26.57093175	      0.46375024	     -5.03385354	     19.53583018	      0.00000000	     23.55009968	     -0.20931793	    -17.65799691	     36.38557054	      0.63504801	     -1.62051203	    -12.80910456	      0.00000000	      0.07852392	     -0.72981606	     -1.22778771	      0.14582676	     -0.97065536	     -1.30452444	      0.12900694	     -1.77447476	     -1.30452444	      0.08974498	     -1.77447476	     -1.07431424	      0.07291731	     -1.48824090	     -0.99757751	      0.04486857	     -1.13048507	     -0.92084078	      0.56088848	     -8.25582520	     -6.82858688	      0.00000000	      0.00000000	      0.00000000	      0.00000000	     -0.00000000	    158.81051379	     -0.36753684	     59.18213044	     44.09415092	     75.02935667	      0.00000000	      5.00000014	    -36.05319672	   -116.76929480	    227.27964718	     64.53438685	     46.06493148	      0.00000000	      5.00000014
